#tb 0: 1/50
#media_type 0: video
#codec_id 0: rawvideo
#dimensions 0: 720x576
#sar 0: 16/15
0,         18,         18,        1,   622080, 0xc73774f5
0,         19,         19,        1,   622080, 0x4ea3a400
0,         20,         20,        1,   622080, 0x95153cda
0,         21,         21,        1,   622080, 0xec39bf0b
0,         22,         22,        1,   622080, 0x94b6f836
0,         23,         23,        1,   622080, 0xc145c3ee
0,         24,         24,        1,   622080, 0x4d4cdee2
0,         25,         25,        1,   622080, 0x193ebc7c
0,         26,         26,        1,   622080, 0xbd728fd8
0,         27,         27,        1,   622080, 0xf0f3252f
0,         28,         28,        1,   622080, 0xc012d20a
0,         29,         29,        1,   622080, 0x7b5831b2
0,         30,         30,        1,   622080, 0x464e9622
0,         31,         31,        1,   622080, 0x46e3c6c0
0,         32,         32,        1,   622080, 0xa6ec908b
0,         33,         33,        1,   622080, 0x6a257595
0,         34,         34,        1,   622080, 0xa6552ecc
0,         35,         35,        1,   622080, 0xdecd1a91
0,         36,         36,        1,   622080, 0xfaa53e71
0,         37,         37,        1,   622080, 0xc94a9707
0,         38,         38,        1,   622080, 0xb5727fd4
0,         39,         39,        1,   622080, 0x143c018c
0,         40,         40,        1,   622080, 0x92d110c9
0,         41,         41,        1,   622080, 0x4f762fc0
0,         42,         42,        1,   622080, 0x3dd2a7d2
0,         43,         43,        1,   622080, 0xa5d02dc0
0,         44,         44,        1,   622080, 0x2223ce3d
0,         45,         45,        1,   622080, 0xe4a5fc36
0,         46,         46,        1,   622080, 0x8384159e
0,         47,         47,        1,   622080, 0x995efa57
